M48
; DRILL file {KiCad 6.0.4+dfsg-1+b1} date Tue 04 Oct 2022 23:39:55 BST
; FORMAT={-:-/ absolute / metric / decimal}
; #@! TF.CreationDate,2022-10-04T23:39:55+01:00
; #@! TF.GenerationSoftware,Kicad,Pcbnew,6.0.4+dfsg-1+b1
; #@! TF.FileFunction,MixedPlating,1,2
FMAT,2
METRIC
; #@! TA.AperFunction,Plated,PTH,ViaDrill
T1C0.300
; #@! TA.AperFunction,Plated,PTH,ComponentDrill
T2C0.300
; #@! TA.AperFunction,Plated,PTH,ViaDrill
T3C0.400
; #@! TA.AperFunction,Plated,PTH,ViaDrill
T4C0.500
; #@! TA.AperFunction,Plated,PTH,ComponentDrill
T5C0.750
; #@! TA.AperFunction,Plated,PTH,ComponentDrill
T6C0.800
; #@! TA.AperFunction,Plated,PTH,ComponentDrill
T7C1.000
; #@! TA.AperFunction,Plated,PTH,ComponentDrill
T8C1.300
; #@! TA.AperFunction,NonPlated,NPTH,ComponentDrill
T9C2.700
; #@! TA.AperFunction,NonPlated,NPTH,ComponentDrill
T10C3.200
%
G90
G05
T1
X1.2Y-23.3
X1.3Y-13.0
X1.3Y-34.0
X1.5Y-45.8
X16.8Y-30.6
X20.6Y-12.8
X25.7Y-29.1
X29.2Y-67.9
X29.3Y-63.4
X29.3Y-71.8
X32.0Y-64.3
X32.0Y-65.4
X32.0Y-66.5
X32.0Y-67.6
X33.1Y-70.3
X33.2Y-64.3
X34.3Y-70.3
X34.5Y-64.3
X35.6Y-64.3
X35.6Y-65.5
X35.6Y-66.7
X35.6Y-67.7
X39.0Y-59.8
X41.095Y-28.445
X43.1Y-60.8
X43.1Y-63.4
X43.1Y-66.4
X43.1Y-69.7
X43.1Y-73.2
X43.5Y-10.7
X46.0Y-73.2
X46.1Y-67.05
X46.2Y-60.8
X48.6Y-61.2
X48.6Y-73.1
X48.8Y-71.4
X49.7Y-75.1
X49.9Y-27.2
X49.9Y-28.5
X50.0Y-62.4
X51.7Y-64.9
X55.273Y-72.8
X56.7Y-71.7
X60.0Y-73.5
X65.395Y-28.47
X66.4Y-10.8
X70.4Y-70.2
X70.8Y-44.8
X70.8Y-45.9
X74.2Y-27.1
X74.2Y-28.5
X74.6Y-71.2
X85.8Y-74.4
X87.7Y-82.1
X88.3Y-74.4
X89.7Y-28.5
X97.7Y-82.2
X98.138Y-28.662
X98.2Y-25.4
T2
X11.935Y-31.2
X11.935Y-32.5
X11.935Y-33.8
X13.845Y-31.2
X13.845Y-32.5
X13.845Y-33.8
X36.235Y-29.05
X36.235Y-30.35
X36.235Y-31.65
X38.145Y-29.05
X38.145Y-30.35
X38.145Y-31.65
X60.535Y-29.075
X60.535Y-30.375
X60.535Y-31.675
X62.445Y-29.075
X62.445Y-30.375
X62.445Y-31.675
X84.835Y-29.1
X84.835Y-30.4
X84.835Y-31.7
X86.745Y-29.1
X86.745Y-30.4
X86.745Y-31.7
T3
X25.7Y-30.6
X32.1Y-50.5
X32.1Y-57.6
X51.786Y-74.999
X54.2Y-69.7
X55.7Y-70.5
X56.4Y-61.5
X57.525Y-60.573
X59.859Y-67.507
X60.3Y-65.1
X60.5Y-66.391
X60.6Y-68.3
X60.6Y-71.9
X62.1Y-71.8
X70.5Y-51.2
X70.5Y-57.45
T4
X1.2Y-80.1
X2.5Y-55.4
X3.0Y-35.1
X3.0Y-36.6
X3.0Y-38.2
X4.1Y-93.0
X4.9Y-86.3
X5.3Y-38.1
X5.6Y-51.8
X6.1Y-61.9
X6.2Y-72.1
X6.8Y-38.1
X7.0Y-7.6
X7.4Y-96.3
X8.3Y-38.1
X9.4Y-81.1
X10.0Y-41.4
X10.4Y-37.2
X10.4Y-39.5
X12.0Y-84.6
X12.3Y-41.4
X13.8Y-70.4
X14.1Y-58.4
X14.6Y-65.4
X14.6Y-97.8
X14.9Y-92.3
X16.9Y-38.2
X17.6Y-35.4
X18.6Y-34.5
X18.6Y-38.2
X18.8Y-70.4
X18.9Y-65.5
X18.9Y-79.1
X18.95Y-75.05
X19.1Y-58.6
X19.6Y-35.4
X19.7Y-90.5
X20.6Y-38.2
X21.1Y-86.6
X21.1Y-87.9
X21.1Y-89.2
X21.1Y-90.5
X21.188Y-48.0
X21.188Y-50.6
X22.3Y-86.6
X22.6Y-90.5
X23.2Y-65.5
X23.5Y-86.6
X23.9Y-70.4
X24.7Y-59.1
X24.7Y-86.6
X25.0Y-4.8
X25.4Y-78.9
X26.0Y-86.6
X27.3Y-32.95
X27.3Y-34.45
X27.3Y-36.05
X29.6Y-35.95
X30.7Y-88.4
X30.7Y-97.9
X30.9Y-59.0
X31.1Y-35.95
X32.6Y-35.95
X34.3Y-39.25
X34.9Y-35.1
X34.9Y-37.4
X36.5Y-39.3
X37.8Y-74.4
X41.2Y-36.05
X41.9Y-33.25
X42.9Y-32.35
X42.9Y-36.05
X43.9Y-33.25
X44.2Y-80.0
X44.9Y-36.05
X46.1Y-47.4
X49.1Y-5.2
X51.6Y-32.975
X51.6Y-34.475
X51.6Y-36.075
X53.9Y-35.975
X54.6Y-66.5
X54.8Y-51.8
X54.8Y-56.4
X55.4Y-35.975
X56.0Y-62.9
X56.9Y-35.975
X58.6Y-39.275
X59.2Y-35.1
X59.2Y-37.4
X60.4Y-57.5
X60.8Y-39.2
X64.6Y-62.1
X65.5Y-36.075
X66.2Y-33.275
X67.2Y-32.375
X67.2Y-36.075
X68.2Y-33.275
X69.2Y-36.075
X71.1Y-5.5
X71.7Y-54.6
X71.8Y-57.7
X72.2Y-49.1
X74.9Y-59.0
X75.0Y-57.4
X75.9Y-33.0
X75.9Y-34.5
X75.9Y-36.1
X78.2Y-36.0
X79.1Y-63.7
X79.7Y-36.0
X80.7Y-68.8
X81.2Y-36.0
X82.9Y-39.3
X83.0Y-77.2
X83.5Y-35.1
X83.5Y-37.6
X85.0Y-39.3
X87.6Y-46.4
X89.8Y-36.1
X90.5Y-33.3
X91.0Y-63.6
X91.5Y-32.4
X91.5Y-36.1
X92.5Y-33.3
X93.2Y-91.1
X93.5Y-36.1
X94.5Y-45.8
X96.6Y-53.9
X98.0Y-91.9
X98.8Y-45.0
T5
X95.15Y-65.9
X95.15Y-67.9
X95.15Y-69.9
X95.15Y-71.9
X95.25Y-78.2
X95.25Y-80.2
X95.25Y-82.2
X95.25Y-84.2
T6
X14.7Y-62.35
X14.7Y-75.05
X18.9Y-54.79
X18.9Y-62.41
X22.59Y-84.2
X23.2Y-62.35
X23.2Y-75.05
X30.21Y-84.2
X34.5Y-75.1
X34.5Y-87.8
X38.2Y-82.09
X38.2Y-89.71
X46.1Y-64.62
X46.1Y-69.5
X50.68Y-77.2
X50.68Y-84.82
X53.22Y-77.2
X53.22Y-84.82
X55.76Y-77.2
X55.76Y-84.82
X58.3Y-77.2
X58.3Y-84.82
T7
X5.1Y-82.65
X5.1Y-90.15
X7.3Y-48.0
X36.775Y-48.924
X39.275Y-53.254
X61.5Y-47.468
X61.5Y-52.468
X65.2Y-75.3
X65.2Y-77.84
X65.2Y-80.38
X67.0Y-60.015
X67.0Y-62.555
X67.0Y-65.095
X67.0Y-67.635
X67.0Y-70.175
X67.74Y-75.3
X67.74Y-77.84
X67.74Y-80.38
X73.7Y-82.825
X73.7Y-85.365
X78.5Y-82.825
X78.5Y-85.365
X84.8Y-83.4
X92.2Y-8.9
T8
X6.3Y-55.35
X6.3Y-77.85
X12.2Y-94.35
X13.5Y-5.4
X17.2Y-94.35
X18.5Y-5.4
X36.167Y-5.4
X41.167Y-5.4
X43.65Y-94.0
X48.65Y-94.0
X53.65Y-94.0
X58.65Y-94.0
X58.833Y-5.4
X63.65Y-94.0
X63.833Y-5.4
X68.65Y-94.0
X73.65Y-94.0
X78.65Y-94.0
X81.5Y-5.4
X83.65Y-94.0
X86.5Y-5.4
X88.65Y-94.0
T9
X6.3Y-66.6
T10
X4.0Y-4.0
X4.0Y-96.0
X96.0Y-4.0
X96.0Y-96.0
T0
M30
