%TF.GenerationSoftware,KiCad,Pcbnew,6.0.4+dfsg-1+b1*%
%TF.CreationDate,2022-10-04T23:39:51+01:00*%
%TF.ProjectId,led-driver,6c65642d-6472-4697-9665-722e6b696361,rev?*%
%TF.SameCoordinates,Original*%
%TF.FileFunction,Paste,Top*%
%TF.FilePolarity,Positive*%
%FSLAX46Y46*%
G04 Gerber Fmt 4.6, Leading zero omitted, Abs format (unit mm)*
G04 Created by KiCad (PCBNEW 6.0.4+dfsg-1+b1) date 2022-10-04 23:39:51*
%MOMM*%
%LPD*%
G01*
G04 APERTURE LIST*
G04 Aperture macros list*
%AMRoundRect*
0 Rectangle with rounded corners*
0 $1 Rounding radius*
0 $2 $3 $4 $5 $6 $7 $8 $9 X,Y pos of 4 corners*
0 Add a 4 corners polygon primitive as box body*
4,1,4,$2,$3,$4,$5,$6,$7,$8,$9,$2,$3,0*
0 Add four circle primitives for the rounded corners*
1,1,$1+$1,$2,$3*
1,1,$1+$1,$4,$5*
1,1,$1+$1,$6,$7*
1,1,$1+$1,$8,$9*
0 Add four rect primitives between the rounded corners*
20,1,$1+$1,$2,$3,$4,$5,0*
20,1,$1+$1,$4,$5,$6,$7,0*
20,1,$1+$1,$6,$7,$8,$9,0*
20,1,$1+$1,$8,$9,$2,$3,0*%
%AMFreePoly0*
4,1,9,3.862500,-0.866500,0.737500,-0.866500,0.737500,-0.450000,-0.737500,-0.450000,-0.737500,0.450000,0.737500,0.450000,0.737500,0.866500,3.862500,0.866500,3.862500,-0.866500,3.862500,-0.866500,$1*%
G04 Aperture macros list end*
%ADD10R,0.900000X1.300000*%
%ADD11FreePoly0,90.000000*%
%ADD12R,2.750000X3.050000*%
%ADD13R,1.200000X2.200000*%
%ADD14RoundRect,0.250000X-0.262500X-0.450000X0.262500X-0.450000X0.262500X0.450000X-0.262500X0.450000X0*%
%ADD15RoundRect,0.242500X0.242500X0.382500X-0.242500X0.382500X-0.242500X-0.382500X0.242500X-0.382500X0*%
%ADD16RoundRect,0.150000X0.650000X0.150000X-0.650000X0.150000X-0.650000X-0.150000X0.650000X-0.150000X0*%
%ADD17R,1.800000X2.500000*%
%ADD18RoundRect,0.250000X0.412500X0.650000X-0.412500X0.650000X-0.412500X-0.650000X0.412500X-0.650000X0*%
%ADD19RoundRect,0.250000X1.425000X-0.362500X1.425000X0.362500X-1.425000X0.362500X-1.425000X-0.362500X0*%
%ADD20RoundRect,0.250000X0.250000X0.475000X-0.250000X0.475000X-0.250000X-0.475000X0.250000X-0.475000X0*%
%ADD21RoundRect,0.250000X-0.250000X-0.475000X0.250000X-0.475000X0.250000X0.475000X-0.250000X0.475000X0*%
%ADD22R,1.700000X1.000000*%
%ADD23RoundRect,0.249999X1.075001X-0.450001X1.075001X0.450001X-1.075001X0.450001X-1.075001X-0.450001X0*%
%ADD24RoundRect,0.145000X-1.605000X1.305000X-1.605000X-1.305000X1.605000X-1.305000X1.605000X1.305000X0*%
%ADD25RoundRect,0.250000X-0.475000X0.250000X-0.475000X-0.250000X0.475000X-0.250000X0.475000X0.250000X0*%
%ADD26RoundRect,0.250000X0.450000X-0.262500X0.450000X0.262500X-0.450000X0.262500X-0.450000X-0.262500X0*%
%ADD27RoundRect,0.243750X0.243750X0.456250X-0.243750X0.456250X-0.243750X-0.456250X0.243750X-0.456250X0*%
%ADD28RoundRect,0.218750X0.218750X0.381250X-0.218750X0.381250X-0.218750X-0.381250X0.218750X-0.381250X0*%
%ADD29RoundRect,0.250000X-0.350000X-0.450000X0.350000X-0.450000X0.350000X0.450000X-0.350000X0.450000X0*%
%ADD30RoundRect,0.250000X0.262500X0.450000X-0.262500X0.450000X-0.262500X-0.450000X0.262500X-0.450000X0*%
%ADD31RoundRect,0.237500X-0.237500X0.300000X-0.237500X-0.300000X0.237500X-0.300000X0.237500X0.300000X0*%
%ADD32RoundRect,0.100000X-0.637500X-0.100000X0.637500X-0.100000X0.637500X0.100000X-0.637500X0.100000X0*%
%ADD33RoundRect,0.243750X-0.243750X-0.456250X0.243750X-0.456250X0.243750X0.456250X-0.243750X0.456250X0*%
%ADD34RoundRect,0.237500X0.237500X-0.300000X0.237500X0.300000X-0.237500X0.300000X-0.237500X-0.300000X0*%
G04 APERTURE END LIST*
D10*
%TO.C,U5*%
X32300000Y-69150000D03*
D11*
X33800000Y-69062500D03*
D10*
X35300000Y-69150000D03*
%TD*%
D12*
%TO.C,Q1*%
X23375000Y-96675000D03*
X23375000Y-93325000D03*
X26425000Y-93325000D03*
X26425000Y-96675000D03*
D13*
X27180000Y-88700000D03*
X24900000Y-88700000D03*
X22620000Y-88700000D03*
%TD*%
D14*
%TO.C,R10*%
X92387500Y-49600000D03*
X94212500Y-49600000D03*
%TD*%
D15*
%TO.C,U4*%
X85190000Y-31175000D03*
X85190000Y-29625000D03*
X86390000Y-31175000D03*
X86390000Y-29625000D03*
D16*
X88440000Y-32305000D03*
X88440000Y-31035000D03*
X88440000Y-29765000D03*
X88440000Y-28495000D03*
X83140000Y-28495000D03*
X83140000Y-29765000D03*
X83140000Y-31035000D03*
X83140000Y-32305000D03*
%TD*%
D17*
%TO.C,D3*%
X55500000Y-33875000D03*
X55500000Y-29875000D03*
%TD*%
D18*
%TO.C,C8*%
X39662500Y-34790000D03*
X36537500Y-34790000D03*
%TD*%
D19*
%TO.C,REF\u002A\u002A*%
X22400000Y-36962500D03*
X22400000Y-31037500D03*
%TD*%
D15*
%TO.C,U3*%
X62090000Y-31150000D03*
X60890000Y-31150000D03*
X62090000Y-29600000D03*
X60890000Y-29600000D03*
D16*
X64140000Y-32280000D03*
X64140000Y-31010000D03*
X64140000Y-29740000D03*
X64140000Y-28470000D03*
X58840000Y-28470000D03*
X58840000Y-29740000D03*
X58840000Y-31010000D03*
X58840000Y-32280000D03*
%TD*%
D14*
%TO.C,R24*%
X71787500Y-60700000D03*
X73612500Y-60700000D03*
%TD*%
D18*
%TO.C,C9*%
X62362500Y-13075000D03*
X59237500Y-13075000D03*
%TD*%
D20*
%TO.C,C18*%
X33750000Y-71700000D03*
X31850000Y-71700000D03*
%TD*%
D14*
%TO.C,R12*%
X96387500Y-49600000D03*
X98212500Y-49600000D03*
%TD*%
D21*
%TO.C,C14*%
X96450000Y-46800000D03*
X98350000Y-46800000D03*
%TD*%
D22*
%TO.C,SW2*%
X41150000Y-80000000D03*
X47450000Y-80000000D03*
X47450000Y-76200000D03*
X41150000Y-76200000D03*
%TD*%
D23*
%TO.C,R1*%
X18600000Y-36800000D03*
X18600000Y-32000000D03*
%TD*%
D24*
%TO.C,L4*%
X83600000Y-16700000D03*
X83600000Y-25700000D03*
%TD*%
D23*
%TO.C,R7*%
X67200000Y-34675000D03*
X67200000Y-29875000D03*
%TD*%
D25*
%TO.C,C28*%
X38500000Y-77150000D03*
X38500000Y-79050000D03*
%TD*%
D21*
%TO.C,C26*%
X52900000Y-61700000D03*
X54800000Y-61700000D03*
%TD*%
D26*
%TO.C,REF\u002A\u002A*%
X70100000Y-32612500D03*
X70100000Y-30787500D03*
%TD*%
D27*
%TO.C,D8*%
X80537500Y-53900000D03*
X78662500Y-53900000D03*
%TD*%
D26*
%TO.C,REF\u002A\u002A*%
X21400000Y-34712500D03*
X21400000Y-32887500D03*
%TD*%
D18*
%TO.C,C2*%
X38062500Y-13050000D03*
X34937500Y-13050000D03*
%TD*%
D26*
%TO.C,REF\u002A\u002A*%
X72100000Y-32612500D03*
X72100000Y-30787500D03*
%TD*%
D19*
%TO.C,REF\u002A\u002A*%
X95300000Y-34862500D03*
X95300000Y-28937500D03*
%TD*%
D27*
%TO.C,D10*%
X80537500Y-60700000D03*
X78662500Y-60700000D03*
%TD*%
D26*
%TO.C,R9*%
X70500000Y-49812500D03*
X70500000Y-47987500D03*
%TD*%
D24*
%TO.C,L2*%
X35000000Y-16650000D03*
X35000000Y-25650000D03*
%TD*%
D18*
%TO.C,C1*%
X13762500Y-15200000D03*
X10637500Y-15200000D03*
%TD*%
D26*
%TO.C,R3*%
X26600000Y-50412500D03*
X26600000Y-48587500D03*
%TD*%
%TO.C,REF\u002A\u002A*%
X94300000Y-32612500D03*
X94300000Y-30787500D03*
%TD*%
D18*
%TO.C,C10*%
X86662500Y-13100000D03*
X83537500Y-13100000D03*
%TD*%
D17*
%TO.C,D1*%
X6900000Y-36000000D03*
X6900000Y-32000000D03*
%TD*%
D18*
%TO.C,C12*%
X63962500Y-37275000D03*
X60837500Y-37275000D03*
%TD*%
%TO.C,C15*%
X88262500Y-37300000D03*
X85137500Y-37300000D03*
%TD*%
D20*
%TO.C,C11*%
X74050000Y-45300000D03*
X72150000Y-45300000D03*
%TD*%
D28*
%TO.C,FB1*%
X52562500Y-59100000D03*
X50437500Y-59100000D03*
%TD*%
D18*
%TO.C,C4*%
X15362500Y-39400000D03*
X12237500Y-39400000D03*
%TD*%
D25*
%TO.C,C23*%
X74600000Y-67850000D03*
X74600000Y-69750000D03*
%TD*%
D14*
%TO.C,R20*%
X72987500Y-79625000D03*
X74812500Y-79625000D03*
%TD*%
D17*
%TO.C,D4*%
X79800000Y-33900000D03*
X79800000Y-29900000D03*
%TD*%
D24*
%TO.C,L3*%
X59300000Y-16675000D03*
X59300000Y-25675000D03*
%TD*%
D26*
%TO.C,REF\u002A\u002A*%
X45800000Y-32512500D03*
X45800000Y-30687500D03*
%TD*%
D14*
%TO.C,R18*%
X93187500Y-53900000D03*
X95012500Y-53900000D03*
%TD*%
D25*
%TO.C,C17*%
X12100000Y-81250000D03*
X12100000Y-83150000D03*
%TD*%
D29*
%TO.C,R25*%
X93200000Y-88500000D03*
X95200000Y-88500000D03*
%TD*%
D22*
%TO.C,SW1*%
X83850000Y-70700000D03*
X77550000Y-70700000D03*
X83850000Y-66900000D03*
X77550000Y-66900000D03*
%TD*%
D15*
%TO.C,U2*%
X37790000Y-31125000D03*
X36590000Y-29575000D03*
X37790000Y-29575000D03*
X36590000Y-31125000D03*
D16*
X39840000Y-32255000D03*
X39840000Y-30985000D03*
X39840000Y-29715000D03*
X39840000Y-28445000D03*
X34540000Y-28445000D03*
X34540000Y-29715000D03*
X34540000Y-30985000D03*
X34540000Y-32255000D03*
%TD*%
D18*
%TO.C,C13*%
X63962500Y-34815000D03*
X60837500Y-34815000D03*
%TD*%
D30*
%TO.C,R4*%
X53625000Y-48690000D03*
X51800000Y-48690000D03*
%TD*%
D31*
%TO.C,C24*%
X50100000Y-70637500D03*
X50100000Y-72362500D03*
%TD*%
D30*
%TO.C,R6*%
X49612500Y-48700000D03*
X47787500Y-48700000D03*
%TD*%
D29*
%TO.C,R15*%
X28000000Y-81300000D03*
X30000000Y-81300000D03*
%TD*%
D20*
%TO.C,C6*%
X49650000Y-45900000D03*
X47750000Y-45900000D03*
%TD*%
D26*
%TO.C,REF\u002A\u002A*%
X96300000Y-32612500D03*
X96300000Y-30787500D03*
%TD*%
D18*
%TO.C,C7*%
X39662500Y-37250000D03*
X36537500Y-37250000D03*
%TD*%
D14*
%TO.C,R19*%
X72987500Y-76725000D03*
X74812500Y-76725000D03*
%TD*%
D20*
%TO.C,C19*%
X34850000Y-62500000D03*
X32950000Y-62500000D03*
%TD*%
D32*
%TO.C,U7*%
X52337500Y-65775000D03*
X52337500Y-66425000D03*
X52337500Y-67075000D03*
X52337500Y-67725000D03*
X52337500Y-68375000D03*
X52337500Y-69025000D03*
X52337500Y-69675000D03*
X52337500Y-70325000D03*
X52337500Y-70975000D03*
X52337500Y-71625000D03*
X58062500Y-71625000D03*
X58062500Y-70975000D03*
X58062500Y-70325000D03*
X58062500Y-69675000D03*
X58062500Y-69025000D03*
X58062500Y-68375000D03*
X58062500Y-67725000D03*
X58062500Y-67075000D03*
X58062500Y-66425000D03*
X58062500Y-65775000D03*
%TD*%
D26*
%TO.C,REF\u002A\u002A*%
X23400000Y-34712500D03*
X23400000Y-32887500D03*
%TD*%
D33*
%TO.C,D7*%
X78662500Y-57300000D03*
X80537500Y-57300000D03*
%TD*%
D15*
%TO.C,U1*%
X12290000Y-31725000D03*
X12290000Y-33275000D03*
X13490000Y-31725000D03*
X13490000Y-33275000D03*
D16*
X15540000Y-34405000D03*
X15540000Y-33135000D03*
X15540000Y-31865000D03*
X15540000Y-30595000D03*
X10240000Y-30595000D03*
X10240000Y-31865000D03*
X10240000Y-33135000D03*
X10240000Y-34405000D03*
%TD*%
D19*
%TO.C,REF\u002A\u002A*%
X71100000Y-34862500D03*
X71100000Y-28937500D03*
%TD*%
D30*
%TO.C,R17*%
X95012500Y-57400000D03*
X93187500Y-57400000D03*
%TD*%
D14*
%TO.C,R21*%
X77087500Y-76725000D03*
X78912500Y-76725000D03*
%TD*%
D18*
%TO.C,C5*%
X15362500Y-36940000D03*
X12237500Y-36940000D03*
%TD*%
D19*
%TO.C,REF\u002A\u002A*%
X46800000Y-34762500D03*
X46800000Y-28837500D03*
%TD*%
D25*
%TO.C,C22*%
X81400000Y-75550000D03*
X81400000Y-77450000D03*
%TD*%
D26*
%TO.C,R23*%
X50000000Y-68812500D03*
X50000000Y-66987500D03*
%TD*%
D14*
%TO.C,R11*%
X76687500Y-45900000D03*
X78512500Y-45900000D03*
%TD*%
D21*
%TO.C,C21*%
X45750000Y-84900000D03*
X47650000Y-84900000D03*
%TD*%
D23*
%TO.C,R8*%
X91500000Y-34700000D03*
X91500000Y-29900000D03*
%TD*%
D14*
%TO.C,R22*%
X77087500Y-79625000D03*
X78912500Y-79625000D03*
%TD*%
D23*
%TO.C,R2*%
X42900000Y-34650000D03*
X42900000Y-29850000D03*
%TD*%
D20*
%TO.C,C3*%
X24637500Y-47900000D03*
X22737500Y-47900000D03*
%TD*%
D30*
%TO.C,R5*%
X24600000Y-50500000D03*
X22775000Y-50500000D03*
%TD*%
D34*
%TO.C,C25*%
X50000000Y-65062500D03*
X50000000Y-63337500D03*
%TD*%
D21*
%TO.C,C27*%
X53000000Y-64000000D03*
X54900000Y-64000000D03*
%TD*%
D29*
%TO.C,R26*%
X93100000Y-61500000D03*
X95100000Y-61500000D03*
%TD*%
D26*
%TO.C,REF\u002A\u002A*%
X47800000Y-32512500D03*
X47800000Y-30687500D03*
%TD*%
D24*
%TO.C,L1*%
X10700000Y-18800000D03*
X10700000Y-27800000D03*
%TD*%
D17*
%TO.C,D2*%
X31200000Y-33850000D03*
X31200000Y-29850000D03*
%TD*%
D18*
%TO.C,C16*%
X88262500Y-34840000D03*
X85137500Y-34840000D03*
%TD*%
M02*
